<?xml version="1.0" encoding="UTF-8" standalone="no"?><!-- Generator: Gravit.io --><svg xmlns="http://www.w3.org/2000/svg" xmlns:xlink="http://www.w3.org/1999/xlink" style="isolation:isolate" viewBox="39.327 259 721 317" width="721pt" height="317pt"><defs><clipPath id="_clipPath_f3NeZKougBMVAavdfh69Hw7PII7q6BRJ"><rect width="800" height="1200"/></clipPath></defs><g clip-path="url(#_clipPath_f3NeZKougBMVAavdfh69Hw7PII7q6BRJ)"><g><path d=" M 39.327 343 L 760.673 343 L 749.187 384 L 52.173 384 L 39.327 343 Z " fill="rgb(56,128,255)"/><path d=" M 93.14 397 L 706.86 397 L 695.375 438 L 105.986 438 L 93.14 397 Z " fill="rgb(56,128,255)"/><path d=" M 148.29 451 L 651.71 451 L 640.225 492 L 161.136 492 L 148.29 451 Z " fill="rgb(56,128,255)"/></g><g><circle vector-effect="non-scaling-stroke" cx="400" cy="417.5" r="158.49999999999997" fill="rgb(56,128,255)"/><circle vector-effect="non-scaling-stroke" cx="400" cy="417.4999999999999" r="113.5" fill="rgb(255,255,255)"/></g><path d=" M 390 440.5 L 390 456 L 451 456 L 439.514 497 L 349 497 L 349 497 L 349 497 L 349 343 L 350.564 343.095 L 350.5 343 L 350.5 343 L 451 343 L 439.514 384 L 390 384 L 390 399.5 L 439.514 399.5 L 428.029 440.5 L 390 440.5 Z " fill-rule="evenodd" fill="rgb(56,128,255)"/></g></svg>