<?xml version="1.0" encoding="UTF-8" standalone="no"?><!-- Generator: Gravit.io --><svg xmlns="http://www.w3.org/2000/svg" xmlns:xlink="http://www.w3.org/1999/xlink" style="isolation:isolate" viewBox="39.327 647 721 317" width="721pt" height="317pt"><defs><clipPath id="_clipPath_3lebFyB5MJkYjY3NxNDU5H751IVzxSRA"><rect width="800" height="1200"/></clipPath></defs><g clip-path="url(#_clipPath_3lebFyB5MJkYjY3NxNDU5H751IVzxSRA)"><g style="isolation:isolate"><g><path d=" M 284 731 L 39.327 731 L 52.173 772 L 284 772 L 284 731 Z  M 528 731 L 760.673 731 L 749.187 772 L 528 772 L 528 731 Z " fill-rule="evenodd" fill="rgb(255,255,255)"/><path d=" M 275 839 L 148.29 839 L 161.136 880 L 275 880 L 275 839 Z  M 528 839 L 651.71 839 L 640.225 880 L 528 880 L 528 839 Z " fill-rule="evenodd" fill="rgb(255,255,255)"/></g><g><path d=" M 241.5 805.5 C 241.5 718.021 312.521 647 400 647 C 487.479 647 558.5 718.021 558.5 805.5 C 558.5 892.979 487.479 964 400 964 C 312.521 964 241.5 892.979 241.5 805.5 Z  M 286.5 805.5 C 286.5 742.858 337.358 692 400 692 C 462.642 692 513.5 742.858 513.5 805.5 C 513.5 868.142 462.642 919 400 919 C 337.358 919 286.5 868.142 286.5 805.5 Z " fill-rule="evenodd" fill="rgb(255,255,255)"/></g><path d=" M 390 828.5 L 390 844 L 451 844 L 439.514 885 L 349 885 L 349 885 L 349 885 L 349 731 L 350.564 731.095 L 350.5 731 L 350.5 731 L 451 731 L 439.514 772 L 390 772 L 390 787.5 L 439.514 787.5 L 428.029 828.5 L 390 828.5 Z " fill-rule="evenodd" fill="rgb(255,255,255)"/><path d=" M 260 785 L 93.14 785 L 105.986 826 L 260 826 L 260 785 Z  M 543 785 L 706.86 785 L 695.375 826 L 543 826 L 543 785 Z " fill-rule="evenodd" fill="rgb(255,255,255)"/></g><g style="isolation:isolate"><g><path d=" M 39.327 343 L 760.673 343 L 749.187 384 L 52.173 384 L 39.327 343 Z " fill="rgb(56,128,255)"/><path d=" M 93.14 397 L 706.86 397 L 695.375 438 L 105.986 438 L 93.14 397 Z " fill="rgb(56,128,255)"/><path d=" M 148.29 451 L 651.71 451 L 640.225 492 L 161.136 492 L 148.29 451 Z " fill="rgb(56,128,255)"/></g><g><circle vector-effect="non-scaling-stroke" cx="400" cy="417.5" r="158.49999999999997" fill="rgb(56,128,255)"/><circle vector-effect="non-scaling-stroke" cx="400" cy="417.4999999999999" r="113.5" fill="rgb(255,255,255)"/></g><path d=" M 390 440.5 L 390 456 L 451 456 L 439.514 497 L 349 497 L 349 497 L 349 497 L 349 343 L 350.564 343.095 L 350.5 343 L 350.5 343 L 451 343 L 439.514 384 L 390 384 L 390 399.5 L 439.514 399.5 L 428.029 440.5 L 390 440.5 Z " fill-rule="evenodd" fill="rgb(56,128,255)"/></g></g></svg>